<svg id="visual" viewBox="0 0 900 176" width="900" height="176" xmlns="http://www.w3.org/2000/svg" xmlns:xlink="http://www.w3.org/1999/xlink" version="1.1"><rect x="0" y="0" width="900" height="176" fill="#2c2f32"></rect><path d="M0 153L225 146L450 149L675 150L900 154L900 0L675 0L450 0L225 0L0 0Z" fill="#33383a"></path><path d="M0 131L225 128L450 135L675 130L900 132L900 0L675 0L450 0L225 0L0 0Z" fill="#353e41"></path><path d="M0 114L225 108L450 112L675 110L900 116L900 0L675 0L450 0L225 0L0 0Z" fill="#374348"></path><path d="M0 89L225 90L450 95L675 88L900 91L900 0L675 0L450 0L225 0L0 0Z" fill="#38494f"></path><path d="M0 76L225 77L450 70L675 72L900 71L900 0L675 0L450 0L225 0L0 0Z" fill="#3a4f57"></path><path d="M0 58L225 52L450 52L675 56L900 52L900 0L675 0L450 0L225 0L0 0Z" fill="#3b555e"></path><path d="M0 39L225 39L450 36L675 37L900 37L900 0L675 0L450 0L225 0L0 0Z" fill="#3c5c66"></path><path d="M0 20L225 22L450 20L675 18L900 20L900 0L675 0L450 0L225 0L0 0Z" fill="#3d626d"></path></svg>