<svg id="visual" viewBox="0 0 900 176" width="900" height="176" xmlns="http://www.w3.org/2000/svg" xmlns:xlink="http://www.w3.org/1999/xlink" version="1.1"><rect x="0" y="0" width="900" height="176" fill="#9bc5da"></rect><path d="M0 75L12.5 75.8C25 76.7 50 78.3 75 80.3C100 82.3 125 84.7 150 85.3C175 86 200 85 225 84C250 83 275 82 300 83.2C325 84.3 350 87.7 375 88.3C400 89 425 87 450 88C475 89 500 93 525 93.7C550 94.3 575 91.7 600 89C625 86.3 650 83.7 675 84.5C700 85.3 725 89.7 750 92C775 94.3 800 94.7 825 96C850 97.3 875 99.7 887.5 100.8L900 102L900 0L887.5 0C875 0 850 0 825 0C800 0 775 0 750 0C725 0 700 0 675 0C650 0 625 0 600 0C575 0 550 0 525 0C500 0 475 0 450 0C425 0 400 0 375 0C350 0 325 0 300 0C275 0 250 0 225 0C200 0 175 0 150 0C125 0 100 0 75 0C50 0 25 0 12.5 0L0 0Z" fill="#7eb2c2"></path><path d="M0 67L12.5 65.8C25 64.7 50 62.3 75 63.7C100 65 125 70 150 70C175 70 200 65 225 64.5C250 64 275 68 300 70.2C325 72.3 350 72.7 375 71C400 69.3 425 65.7 450 64.8C475 64 500 66 525 64.8C550 63.7 575 59.3 600 58C625 56.7 650 58.3 675 60.2C700 62 725 64 750 65.7C775 67.3 800 68.7 825 66.7C850 64.7 875 59.3 887.5 56.7L900 54L900 0L887.5 0C875 0 850 0 825 0C800 0 775 0 750 0C725 0 700 0 675 0C650 0 625 0 600 0C575 0 550 0 525 0C500 0 475 0 450 0C425 0 400 0 375 0C350 0 325 0 300 0C275 0 250 0 225 0C200 0 175 0 150 0C125 0 100 0 75 0C50 0 25 0 12.5 0L0 0Z" fill="#8ab7d1"></path><path d="M0 51L12.5 48.5C25 46 50 41 75 38.2C100 35.3 125 34.7 150 37.3C175 40 200 46 225 48C250 50 275 48 300 47.3C325 46.7 350 47.3 375 47.8C400 48.3 425 48.7 450 48.8C475 49 500 49 525 47.5C550 46 575 43 600 42.3C625 41.7 650 43.3 675 42.8C700 42.3 725 39.7 750 38.5C775 37.3 800 37.7 825 39.2C850 40.7 875 43.3 887.5 44.7L900 46L900 0L887.5 0C875 0 850 0 825 0C800 0 775 0 750 0C725 0 700 0 675 0C650 0 625 0 600 0C575 0 550 0 525 0C500 0 475 0 450 0C425 0 400 0 375 0C350 0 325 0 300 0C275 0 250 0 225 0C200 0 175 0 150 0C125 0 100 0 75 0C50 0 25 0 12.5 0L0 0Z" fill="#9bbadd"></path></svg>