<svg id="visual" viewBox="0 0 900 600" width="900" height="600" xmlns="http://www.w3.org/2000/svg" xmlns:xlink="http://www.w3.org/1999/xlink" version="1.1"><path d="M0 151L21.5 140C43 129 86 107 128.8 102C171.7 97 214.3 109 257.2 108C300 107 343 93 385.8 96C428.7 99 471.3 119 514.2 122C557 125 600 111 642.8 121C685.7 131 728.3 165 771.2 173C814 181 857 163 878.5 154L900 145L900 0L878.5 0C857 0 814 0 771.2 0C728.3 0 685.7 0 642.8 0C600 0 557 0 514.2 0C471.3 0 428.7 0 385.8 0C343 0 300 0 257.2 0C214.3 0 171.7 0 128.8 0C86 0 43 0 21.5 0L0 0Z" fill="#a1b1c9"></path><path d="M0 223L21.5 213C43 203 86 183 128.8 180C171.7 177 214.3 191 257.2 187C300 183 343 161 385.8 161C428.7 161 471.3 183 514.2 188C557 193 600 181 642.8 185C685.7 189 728.3 209 771.2 218C814 227 857 225 878.5 224L900 223L900 143L878.5 152C857 161 814 179 771.2 171C728.3 163 685.7 129 642.8 119C600 109 557 123 514.2 120C471.3 117 428.7 97 385.8 94C343 91 300 105 257.2 106C214.3 107 171.7 95 128.8 100C86 105 43 127 21.5 138L0 149Z" fill="#93a3bf"></path><path d="M0 289L21.5 301C43 313 86 337 128.8 333C171.7 329 214.3 297 257.2 292C300 287 343 309 385.8 319C428.7 329 471.3 327 514.2 316C557 305 600 285 642.8 282C685.7 279 728.3 293 771.2 305C814 317 857 327 878.5 332L900 337L900 221L878.5 222C857 223 814 225 771.2 216C728.3 207 685.7 187 642.8 183C600 179 557 191 514.2 186C471.3 181 428.7 159 385.8 159C343 159 300 181 257.2 185C214.3 189 171.7 175 128.8 178C86 181 43 201 21.5 211L0 221Z" fill="#8596b5"></path><path d="M0 325L21.5 334C43 343 86 361 128.8 353C171.7 345 214.3 311 257.2 305C300 299 343 321 385.8 334C428.7 347 471.3 351 514.2 343C557 335 600 315 642.8 309C685.7 303 728.3 311 771.2 323C814 335 857 351 878.5 359L900 367L900 335L878.5 330C857 325 814 315 771.2 303C728.3 291 685.7 277 642.8 280C600 283 557 303 514.2 314C471.3 325 428.7 327 385.8 317C343 307 300 285 257.2 290C214.3 295 171.7 327 128.8 331C86 335 43 311 21.5 299L0 287Z" fill="#7788ab"></path><path d="M0 355L21.5 365C43 375 86 395 128.8 387C171.7 379 214.3 343 257.2 338C300 333 343 359 385.8 370C428.7 381 471.3 377 514.2 368C557 359 600 345 642.8 340C685.7 335 728.3 339 771.2 351C814 363 857 383 878.5 393L900 403L900 365L878.5 357C857 349 814 333 771.2 321C728.3 309 685.7 301 642.8 307C600 313 557 333 514.2 341C471.3 349 428.7 345 385.8 332C343 319 300 297 257.2 303C214.3 309 171.7 343 128.8 351C86 359 43 341 21.5 332L0 323Z" fill="#6a7ba1"></path><path d="M0 391L21.5 398C43 405 86 419 128.8 407C171.7 395 214.3 357 257.2 354C300 351 343 383 385.8 397C428.7 411 471.3 407 514.2 398C557 389 600 375 642.8 369C685.7 363 728.3 365 771.2 376C814 387 857 407 878.5 417L900 427L900 401L878.5 391C857 381 814 361 771.2 349C728.3 337 685.7 333 642.8 338C600 343 557 357 514.2 366C471.3 375 428.7 379 385.8 368C343 357 300 331 257.2 336C214.3 341 171.7 377 128.8 385C86 393 43 373 21.5 363L0 353Z" fill="#5e6e97"></path><path d="M0 445L21.5 451C43 457 86 469 128.8 464C171.7 459 214.3 437 257.2 432C300 427 343 439 385.8 445C428.7 451 471.3 451 514.2 446C557 441 600 431 642.8 436C685.7 441 728.3 461 771.2 468C814 475 857 469 878.5 466L900 463L900 425L878.5 415C857 405 814 385 771.2 374C728.3 363 685.7 361 642.8 367C600 373 557 387 514.2 396C471.3 405 428.7 409 385.8 395C343 381 300 349 257.2 352C214.3 355 171.7 393 128.8 405C86 417 43 403 21.5 396L0 389Z" fill="#52618d"></path><path d="M0 505L21.5 508C43 511 86 517 128.8 514C171.7 511 214.3 499 257.2 493C300 487 343 487 385.8 485C428.7 483 471.3 479 514.2 477C557 475 600 475 642.8 481C685.7 487 728.3 499 771.2 504C814 509 857 507 878.5 506L900 505L900 461L878.5 464C857 467 814 473 771.2 466C728.3 459 685.7 439 642.8 434C600 429 557 439 514.2 444C471.3 449 428.7 449 385.8 443C343 437 300 425 257.2 430C214.3 435 171.7 457 128.8 462C86 467 43 455 21.5 449L0 443Z" fill="#465583"></path><path d="M0 517L21.5 523C43 529 86 541 128.8 543C171.7 545 214.3 537 257.2 532C300 527 343 525 385.8 521C428.7 517 471.3 511 514.2 510C557 509 600 513 642.8 516C685.7 519 728.3 521 771.2 524C814 527 857 531 878.5 533L900 535L900 503L878.5 504C857 505 814 507 771.2 502C728.3 497 685.7 485 642.8 479C600 473 557 473 514.2 475C471.3 477 428.7 481 385.8 483C343 485 300 485 257.2 491C214.3 497 171.7 509 128.8 512C86 515 43 509 21.5 506L0 503Z" fill="#3b4879"></path><path d="M0 553L21.5 557C43 561 86 569 128.8 570C171.7 571 214.3 565 257.2 564C300 563 343 567 385.8 567C428.7 567 471.3 563 514.2 561C557 559 600 559 642.8 561C685.7 563 728.3 567 771.2 571C814 575 857 579 878.5 581L900 583L900 533L878.5 531C857 529 814 525 771.2 522C728.3 519 685.7 517 642.8 514C600 511 557 507 514.2 508C471.3 509 428.7 515 385.8 519C343 523 300 525 257.2 530C214.3 535 171.7 543 128.8 541C86 539 43 527 21.5 521L0 515Z" fill="#303c6f"></path><path d="M0 601L21.5 601C43 601 86 601 128.8 601C171.7 601 214.3 601 257.2 601C300 601 343 601 385.8 601C428.7 601 471.3 601 514.2 601C557 601 600 601 642.8 601C685.7 601 728.3 601 771.2 601C814 601 857 601 878.5 601L900 601L900 581L878.5 579C857 577 814 573 771.2 569C728.3 565 685.7 561 642.8 559C600 557 557 557 514.2 559C471.3 561 428.7 565 385.8 565C343 565 300 561 257.2 562C214.3 563 171.7 569 128.8 568C86 567 43 559 21.5 555L0 551Z" fill="#253065"></path></svg>