<svg id="visual" viewBox="0 0 900 600" width="900" height="600" xmlns="http://www.w3.org/2000/svg" xmlns:xlink="http://www.w3.org/1999/xlink" version="1.1"><path d="M0 428L50 428C100 428 200 428 300 429.2C400 430.3 500 432.7 600 435.2C700 437.7 800 440.3 850 441.7L900 443L900 0L850 0C800 0 700 0 600 0C500 0 400 0 300 0C200 0 100 0 50 0L0 0Z" fill="#8dd3c5"></path><path d="M0 402L50 403.3C100 404.7 200 407.3 300 406.8C400 406.3 500 402.7 600 401.3C700 400 800 401 850 401.5L900 402L900 0L850 0C800 0 700 0 600 0C500 0 400 0 300 0C200 0 100 0 50 0L0 0Z" fill="#85ccbe"></path><path d="M0 358L50 360C100 362 200 366 300 365.7C400 365.3 500 360.7 600 357.8C700 355 800 354 850 353.5L900 353L900 0L850 0C800 0 700 0 600 0C500 0 400 0 300 0C200 0 100 0 50 0L0 0Z" fill="#7ec4b7"></path><path d="M0 325L50 323.8C100 322.7 200 320.3 300 319C400 317.7 500 317.3 600 317C700 316.7 800 316.3 850 316.2L900 316L900 0L850 0C800 0 700 0 600 0C500 0 400 0 300 0C200 0 100 0 50 0L0 0Z" fill="#76bdb0"></path><path d="M0 275L50 277.5C100 280 200 285 300 284.5C400 284 500 278 600 276.5C700 275 800 278 850 279.5L900 281L900 0L850 0C800 0 700 0 600 0C500 0 400 0 300 0C200 0 100 0 50 0L0 0Z" fill="#6fb5a9"></path><path d="M0 239L50 240.8C100 242.7 200 246.3 300 247C400 247.7 500 245.3 600 245.3C700 245.3 800 247.7 850 248.8L900 250L900 0L850 0C800 0 700 0 600 0C500 0 400 0 300 0C200 0 100 0 50 0L0 0Z" fill="#67aea2"></path><path d="M0 194L50 195.2C100 196.3 200 198.7 300 197.7C400 196.7 500 192.3 600 192C700 191.7 800 195.3 850 197.2L900 199L900 0L850 0C800 0 700 0 600 0C500 0 400 0 300 0C200 0 100 0 50 0L0 0Z" fill="#60a79b"></path><path d="M0 153L50 152.8C100 152.7 200 152.3 300 154.3C400 156.3 500 160.7 600 162C700 163.3 800 161.7 850 160.8L900 160L900 0L850 0C800 0 700 0 600 0C500 0 400 0 300 0C200 0 100 0 50 0L0 0Z" fill="#589f94"></path><path d="M0 127L50 125.7C100 124.3 200 121.7 300 120.5C400 119.3 500 119.7 600 118C700 116.3 800 112.7 850 110.8L900 109L900 0L850 0C800 0 700 0 600 0C500 0 400 0 300 0C200 0 100 0 50 0L0 0Z" fill="#51988d"></path><path d="M0 89L50 88C100 87 200 85 300 83.2C400 81.3 500 79.7 600 77C700 74.3 800 70.7 850 68.8L900 67L900 0L850 0C800 0 700 0 600 0C500 0 400 0 300 0C200 0 100 0 50 0L0 0Z" fill="#499187"></path><path d="M0 38L50 37.7C100 37.3 200 36.7 300 36.7C400 36.7 500 37.3 600 37C700 36.7 800 35.3 850 34.7L900 34L900 0L850 0C800 0 700 0 600 0C500 0 400 0 300 0C200 0 100 0 50 0L0 0Z" fill="#428a80"></path></svg>