<svg id="visual" viewBox="0 0 900 600" width="900" height="600" xmlns="http://www.w3.org/2000/svg" xmlns:xlink="http://www.w3.org/1999/xlink" version="1.1"><path d="M0 127L50 127C100 127 200 127 300 153C400 179 500 231 600 241C700 251 800 219 850 203L900 187L900 0L850 0C800 0 700 0 600 0C500 0 400 0 300 0C200 0 100 0 50 0L0 0Z" fill="#249ea2"></path><path d="M0 223L50 235C100 247 200 271 300 287C400 303 500 311 600 312C700 313 800 307 850 304L900 301L900 185L850 201C800 217 700 249 600 239C500 229 400 177 300 151C200 125 100 125 50 125L0 125Z" fill="#60b1b4"></path><path d="M0 235L50 251C100 267 200 299 300 328C400 357 500 383 600 388C700 393 800 377 850 369L900 361L900 299L850 302C800 305 700 311 600 310C500 309 400 301 300 285C200 269 100 245 50 233L0 221Z" fill="#8bc4c7"></path><path d="M0 409L50 426C100 443 200 477 300 498C400 519 500 527 600 527C700 527 800 519 850 515L900 511L900 359L850 367C800 375 700 391 600 386C500 381 400 355 300 326C200 297 100 265 50 249L0 233Z" fill="#b3d8d9"></path><path d="M0 547L50 553C100 559 200 571 300 577C400 583 500 583 600 581C700 579 800 575 850 573L900 571L900 509L850 513C800 517 700 525 600 525C500 525 400 517 300 496C200 475 100 441 50 424L0 407Z" fill="#d9ebec"></path><path d="M0 601L50 601C100 601 200 601 300 601C400 601 500 601 600 601C700 601 800 601 850 601L900 601L900 569L850 571C800 573 700 577 600 579C500 581 400 581 300 575C200 569 100 557 50 551L0 545Z" fill="#ffffff"></path></svg>