<svg id="visual" viewBox="0 0 900 600" width="900" height="600" xmlns="http://www.w3.org/2000/svg" xmlns:xlink="http://www.w3.org/1999/xlink" version="1.1"><path d="M0 61L50 53C100 45 200 29 300 35C400 41 500 69 600 68C700 67 800 37 850 22L900 7L900 0L850 0C800 0 700 0 600 0C500 0 400 0 300 0C200 0 100 0 50 0L0 0Z" fill="#669d94"></path><path d="M0 121L50 107C100 93 200 65 300 74C400 83 500 129 600 127C700 125 800 75 850 50L900 25L900 5L850 20C800 35 700 65 600 66C500 67 400 39 300 33C200 27 100 43 50 51L0 59Z" fill="#80ada5"></path><path d="M0 133L50 134C100 135 200 137 300 144C400 151 500 163 600 155C700 147 800 119 850 105L900 91L900 23L850 48C800 73 700 123 600 125C500 127 400 81 300 72C200 63 100 91 50 105L0 119Z" fill="#99bdb6"></path><path d="M0 403L50 394C100 385 200 367 300 341C400 315 500 281 600 241C700 201 800 155 850 132L900 109L900 89L850 103C800 117 700 145 600 153C500 161 400 149 300 142C200 135 100 133 50 132L0 131Z" fill="#b2cdc8"></path><path d="M0 583L50 561C100 539 200 495 300 442C400 389 500 327 600 294C700 261 800 257 850 255L900 253L900 107L850 130C800 153 700 199 600 239C500 279 400 313 300 339C200 365 100 383 50 392L0 401Z" fill="#cbdeda"></path><path d="M0 589L50 570C100 551 200 513 300 471C400 429 500 383 600 350C700 317 800 297 850 287L900 277L900 251L850 253C800 255 700 259 600 292C500 325 400 387 300 440C200 493 100 537 50 559L0 581Z" fill="#e5eeec"></path><path d="M0 601L50 601C100 601 200 601 300 601C400 601 500 601 600 601C700 601 800 601 850 601L900 601L900 275L850 285C800 295 700 315 600 348C500 381 400 427 300 469C200 511 100 549 50 568L0 587Z" fill="#ffffff"></path></svg>