<svg id="visual" viewBox="0 0 900 150" width="900" height="150" xmlns="http://www.w3.org/2000/svg" xmlns:xlink="http://www.w3.org/1999/xlink" version="1.1"><g fill="none" stroke="#009473" stroke-width="3"><circle r="23" cx="842" cy="121"></circle><circle r="3" cx="464" cy="118"></circle><circle r="5" cx="260" cy="115"></circle><circle r="20" cx="51" cy="124"></circle><circle r="8" cx="466" cy="53"></circle><circle r="19" cx="66" cy="30"></circle><circle r="21" cx="585" cy="30"></circle><circle r="13" cx="570" cy="92"></circle><circle r="8" cx="527" cy="67"></circle><circle r="18" cx="803" cy="43"></circle><circle r="10" cx="254" cy="58"></circle><circle r="19" cx="631" cy="105"></circle><circle r="2" cx="180" cy="115"></circle><circle r="15" cx="163" cy="42"></circle><circle r="3" cx="370" cy="121"></circle><circle r="12" cx="875" cy="85"></circle><circle r="15" cx="765" cy="107"></circle><circle r="15" cx="308" cy="99"></circle><circle r="19" cx="522" cy="119"></circle><circle r="19" cx="37" cy="76"></circle><circle r="17" cx="408" cy="84"></circle><circle r="10" cx="710" cy="77"></circle><circle r="17" cx="355" cy="46"></circle><circle r="10" cx="636" cy="38"></circle><circle r="7" cx="733" cy="27"></circle><circle r="8" cx="873" cy="26"></circle><circle r="7" cx="93" cy="84"></circle><circle r="3" cx="418" cy="28"></circle><circle r="18" cx="299" cy="26"></circle><circle r="9" cx="213" cy="26"></circle><circle r="9" cx="688" cy="125"></circle><circle r="9" cx="124" cy="122"></circle></g></svg>