<svg id="visual" viewBox="0 0 900 150" width="900" height="150" xmlns="http://www.w3.org/2000/svg" xmlns:xlink="http://www.w3.org/1999/xlink" version="1.1"><g><g transform="translate(581 75)"><path d="M28.5 -15.6C34.5 -6 35.3 7.4 29.7 16.4C24.1 25.4 12 30.1 0.3 29.9C-11.3 29.7 -22.7 24.6 -27.9 15.9C-33.1 7.1 -32.2 -5.5 -26.5 -14.9C-20.9 -24.3 -10.4 -30.6 0.4 -30.8C11.2 -31 22.5 -25.2 28.5 -15.6Z" fill="none" stroke="#009473" stroke-width="8"></path></g><g transform="translate(75 67)"><path d="M25.9 -15.7C30.8 -6.5 30.1 5.2 24.8 13.8C19.6 22.4 9.8 27.8 0.5 27.5C-8.7 27.2 -17.4 21.1 -22.3 12.8C-27.2 4.5 -28.1 -6.2 -23.8 -15C-19.4 -23.9 -9.7 -30.9 0.4 -31.2C10.5 -31.4 21 -24.8 25.9 -15.7Z" fill="none" stroke="#009473" stroke-width="8"></path></g><g transform="translate(838 75)"><path d="M17.7 -10.1C21.9 -2.9 23.6 5.8 20.2 12C16.8 18.1 8.4 21.7 0.3 21.6C-7.9 21.4 -15.7 17.5 -19.3 11.2C-22.9 5 -22.2 -3.7 -18.3 -10.7C-14.3 -17.8 -7.2 -23.1 -0.2 -23C6.7 -22.9 13.5 -17.3 17.7 -10.1Z" fill="none" stroke="#009473" stroke-width="8"></path></g><g transform="translate(239 71)"><path d="M13.5 -7.1C16.7 -2.2 18 4.5 15.5 8.9C12.9 13.2 6.5 15.3 0.6 14.9C-5.3 14.6 -10.6 11.9 -13.6 7.3C-16.6 2.6 -17.3 -3.9 -14.6 -8.4C-12 -13 -6 -15.6 -0.4 -15.4C5.1 -15.1 10.3 -12 13.5 -7.1Z" fill="none" stroke="#009473" stroke-width="8"></path></g><g transform="translate(338 62)"><path d="M14.6 -8.5C18.1 -2.5 19.3 4.7 16.5 9.9C13.7 15.1 6.8 18.4 0.1 18.4C-6.7 18.3 -13.4 15 -16.5 9.5C-19.7 4.1 -19.3 -3.4 -15.9 -9.3C-12.6 -15.2 -6.3 -19.5 -0.3 -19.3C5.6 -19.1 11.2 -14.4 14.6 -8.5Z" fill="none" stroke="#009473" stroke-width="8"></path></g><g transform="translate(495 44)"><path d="M12.6 -6.7C15.7 -2 17 4.3 14.6 9.3C12.2 14.2 6.1 17.9 0.3 17.7C-5.4 17.5 -10.9 13.4 -13.3 8.5C-15.7 3.5 -15 -2.4 -12.3 -6.9C-9.6 -11.4 -4.8 -14.5 0 -14.5C4.8 -14.5 9.5 -11.4 12.6 -6.7Z" fill="none" stroke="#009473" stroke-width="8"></path></g><g transform="translate(738 55)"><path d="M24.4 -13.9C29.4 -5.3 29.9 6.1 25.1 15C20.3 23.8 10.1 30 0.8 29.5C-8.6 29 -17.1 21.9 -22.5 12.8C-27.9 3.7 -30.1 -7.5 -25.8 -15.6C-21.5 -23.8 -10.8 -28.9 -0.6 -28.6C9.6 -28.3 19.3 -22.5 24.4 -13.9Z" fill="none" stroke="#009473" stroke-width="8"></path></g><g transform="translate(421 97)"><path d="M21.9 -12.9C27.2 -3.6 29.2 7.2 25.1 14.6C20.9 22 10.4 26 -0.2 26.1C-10.8 26.2 -21.7 22.5 -26.6 14.7C-31.4 6.9 -30.3 -5 -24.9 -14.4C-19.5 -23.8 -9.8 -30.7 -0.7 -30.3C8.4 -29.9 16.7 -22.2 21.9 -12.9Z" fill="none" stroke="#009473" stroke-width="8"></path></g><g transform="translate(668 107)"><path d="M22.9 -13.2C28.3 -4 30.2 7.3 25.8 16.5C21.4 25.7 10.7 32.8 0.3 32.6C-10 32.4 -20 24.9 -24.4 15.7C-28.7 6.5 -27.4 -4.3 -22.4 -13.3C-17.4 -22.4 -8.7 -29.7 0 -29.7C8.8 -29.7 17.6 -22.5 22.9 -13.2Z" fill="none" stroke="#009473" stroke-width="8"></path></g></g></svg>