<svg id="visual" viewBox="0 0 900 150" width="900" height="150" xmlns="http://www.w3.org/2000/svg" xmlns:xlink="http://www.w3.org/1999/xlink" version="1.1"><g fill="none" stroke="#009473" stroke-width="3"><circle r="23" cx="521" cy="104"></circle><circle r="3" cx="242" cy="119"></circle><circle r="11" cx="574" cy="66"></circle><circle r="17" cx="725" cy="86"></circle><circle r="9" cx="481" cy="62"></circle><circle r="2" cx="299" cy="108"></circle><circle r="9" cx="247" cy="32"></circle><circle r="8" cx="641" cy="91"></circle><circle r="2" cx="409" cy="47"></circle><circle r="5" cx="137" cy="115"></circle><circle r="20" cx="181" cy="78"></circle><circle r="6" cx="805" cy="104"></circle><circle r="18" cx="122" cy="25"></circle><circle r="10" cx="83" cy="108"></circle><circle r="18" cx="871" cy="74"></circle><circle r="20" cx="336" cy="50"></circle><circle r="13" cx="624" cy="39"></circle><circle r="10" cx="806" cy="45"></circle><circle r="6" cx="530" cy="29"></circle><circle r="18" cx="49" cy="41"></circle><circle r="3" cx="446" cy="118"></circle><circle r="11" cx="384" cy="121"></circle><circle r="4" cx="865" cy="25"></circle><circle r="19" cx="30" cy="125"></circle><circle r="13" cx="704" cy="34"></circle><circle r="9" cx="678" cy="125"></circle><circle r="16" cx="586" cy="123"></circle></g></svg>