<svg id="visual" viewBox="0 0 1500 150" width="1500" height="150" xmlns="http://www.w3.org/2000/svg" xmlns:xlink="http://www.w3.org/1999/xlink" version="1.1"><path d="M0 96L35.7 98.3C71.3 100.7 142.7 105.3 214.2 106.7C285.7 108 357.3 106 428.8 105C500.3 104 571.7 104 643 101.8C714.3 99.7 785.7 95.3 857 96.2C928.3 97 999.7 103 1071.2 105.5C1142.7 108 1214.3 107 1285.8 106.2C1357.3 105.3 1428.7 104.7 1464.3 104.3L1500 104L1500 151L1464.3 151C1428.7 151 1357.3 151 1285.8 151C1214.3 151 1142.7 151 1071.2 151C999.7 151 928.3 151 857 151C785.7 151 714.3 151 643 151C571.7 151 500.3 151 428.8 151C357.3 151 285.7 151 214.2 151C142.7 151 71.3 151 35.7 151L0 151Z" fill="#4facf7"></path><path d="M0 114L35.7 112.3C71.3 110.7 142.7 107.3 214.2 107.3C285.7 107.3 357.3 110.7 428.8 110.8C500.3 111 571.7 108 643 105.7C714.3 103.3 785.7 101.7 857 102.8C928.3 104 999.7 108 1071.2 108.5C1142.7 109 1214.3 106 1285.8 105.5C1357.3 105 1428.7 107 1464.3 108L1500 109L1500 151L1464.3 151C1428.7 151 1357.3 151 1285.8 151C1214.3 151 1142.7 151 1071.2 151C999.7 151 928.3 151 857 151C785.7 151 714.3 151 643 151C571.7 151 500.3 151 428.8 151C357.3 151 285.7 151 214.2 151C142.7 151 71.3 151 35.7 151L0 151Z" fill="#0babdf"></path><path d="M0 117L35.7 117.7C71.3 118.3 142.7 119.7 214.2 119.8C285.7 120 357.3 119 428.8 117.3C500.3 115.7 571.7 113.3 643 112C714.3 110.7 785.7 110.3 857 110.2C928.3 110 999.7 110 1071.2 109.8C1142.7 109.7 1214.3 109.3 1285.8 109C1357.3 108.7 1428.7 108.3 1464.3 108.2L1500 108L1500 151L1464.3 151C1428.7 151 1357.3 151 1285.8 151C1214.3 151 1142.7 151 1071.2 151C999.7 151 928.3 151 857 151C785.7 151 714.3 151 643 151C571.7 151 500.3 151 428.8 151C357.3 151 285.7 151 214.2 151C142.7 151 71.3 151 35.7 151L0 151Z" fill="#00a6c1"></path><path d="M0 130L35.7 130.2C71.3 130.3 142.7 130.7 214.2 130.2C285.7 129.7 357.3 128.3 428.8 127.2C500.3 126 571.7 125 643 124.2C714.3 123.3 785.7 122.7 857 123.7C928.3 124.7 999.7 127.3 1071.2 127C1142.7 126.7 1214.3 123.3 1285.8 121.7C1357.3 120 1428.7 120 1464.3 120L1500 120L1500 151L1464.3 151C1428.7 151 1357.3 151 1285.8 151C1214.3 151 1142.7 151 1071.2 151C999.7 151 928.3 151 857 151C785.7 151 714.3 151 643 151C571.7 151 500.3 151 428.8 151C357.3 151 285.7 151 214.2 151C142.7 151 71.3 151 35.7 151L0 151Z" fill="#009f9e"></path><path d="M0 132L35.7 133.2C71.3 134.3 142.7 136.7 214.2 138C285.7 139.3 357.3 139.7 428.8 138.2C500.3 136.7 571.7 133.3 643 131.8C714.3 130.3 785.7 130.7 857 132.5C928.3 134.3 999.7 137.7 1071.2 137.7C1142.7 137.7 1214.3 134.3 1285.8 133.3C1357.3 132.3 1428.7 133.7 1464.3 134.3L1500 135L1500 151L1464.3 151C1428.7 151 1357.3 151 1285.8 151C1214.3 151 1142.7 151 1071.2 151C999.7 151 928.3 151 857 151C785.7 151 714.3 151 643 151C571.7 151 500.3 151 428.8 151C357.3 151 285.7 151 214.2 151C142.7 151 71.3 151 35.7 151L0 151Z" fill="#009473"></path></svg>