<svg id="visual" viewBox="0 0 900 600" width="900" height="600" xmlns="http://www.w3.org/2000/svg" xmlns:xlink="http://www.w3.org/1999/xlink" version="1.1"><path d="M0 386L21.5 395.5C43 405 86 424 128.8 429.3C171.7 434.7 214.3 426.3 257.2 422.3C300 418.3 343 418.7 385.8 410.3C428.7 402 471.3 385 514.2 388.3C557 391.7 600 415.3 642.8 425C685.7 434.7 728.3 430.3 771.2 427.2C814 424 857 422 878.5 421L900 420L900 601L878.5 601C857 601 814 601 771.2 601C728.3 601 685.7 601 642.8 601C600 601 557 601 514.2 601C471.3 601 428.7 601 385.8 601C343 601 300 601 257.2 601C214.3 601 171.7 601 128.8 601C86 601 43 601 21.5 601L0 601Z" fill="#4facf7"></path><path d="M0 459L21.5 452.2C43 445.3 86 431.7 128.8 431.3C171.7 431 214.3 444 257.2 444.7C300 445.3 343 433.7 385.8 424.5C428.7 415.3 471.3 408.7 514.2 413.7C557 418.7 600 435.3 642.8 437.7C685.7 440 728.3 428 771.2 425.7C814 423.3 857 430.7 878.5 434.3L900 438L900 601L878.5 601C857 601 814 601 771.2 601C728.3 601 685.7 601 642.8 601C600 601 557 601 514.2 601C471.3 601 428.7 601 385.8 601C343 601 300 601 257.2 601C214.3 601 171.7 601 128.8 601C86 601 43 601 21.5 601L0 601Z" fill="#0babdf"></path><path d="M0 471L21.5 473.3C43 475.7 86 480.3 128.8 480.8C171.7 481.3 214.3 477.7 257.2 471.2C300 464.7 343 455.3 385.8 450.2C428.7 445 471.3 444 514.2 443.7C557 443.3 600 443.7 642.8 443C685.7 442.3 728.3 440.7 771.2 439.5C814 438.3 857 437.7 878.5 437.3L900 437L900 601L878.5 601C857 601 814 601 771.2 601C728.3 601 685.7 601 642.8 601C600 601 557 601 514.2 601C471.3 601 428.7 601 385.8 601C343 601 300 601 257.2 601C214.3 601 171.7 601 128.8 601C86 601 43 601 21.5 601L0 601Z" fill="#00a6c1"></path><path d="M0 523L21.5 523.8C43 524.7 86 526.3 128.8 524.2C171.7 522 214.3 516 257.2 511.2C300 506.3 343 502.7 385.8 499.5C428.7 496.3 471.3 493.7 514.2 497.8C557 502 600 513 642.8 512C685.7 511 728.3 498 771.2 491C814 484 857 483 878.5 482.5L900 482L900 601L878.5 601C857 601 814 601 771.2 601C728.3 601 685.7 601 642.8 601C600 601 557 601 514.2 601C471.3 601 428.7 601 385.8 601C343 601 300 601 257.2 601C214.3 601 171.7 601 128.8 601C86 601 43 601 21.5 601L0 601Z" fill="#009f9e"></path><path d="M0 532L21.5 536.3C43 540.7 86 549.3 128.8 554.3C171.7 559.3 214.3 560.7 257.2 555.2C300 549.7 343 537.3 385.8 531.5C428.7 525.7 471.3 526.3 514.2 533.3C557 540.3 600 553.7 642.8 553.8C685.7 554 728.3 541 771.2 537C814 533 857 538 878.5 540.5L900 543L900 601L878.5 601C857 601 814 601 771.2 601C728.3 601 685.7 601 642.8 601C600 601 557 601 514.2 601C471.3 601 428.7 601 385.8 601C343 601 300 601 257.2 601C214.3 601 171.7 601 128.8 601C86 601 43 601 21.5 601L0 601Z" fill="#009473"></path></svg>