<svg xmlns="http://www.w3.org/2000/svg" version="1.1" xmlns:xlink="http://www.w3.org/1999/xlink" xmlns:svgjs="http://svgjs.com/svgjs" width="1440" height="560" preserveAspectRatio="none" viewBox="0 0 1440 560"><g mask="url(&quot;#SvgjsMask1081&quot;)" fill="none"><path d="M1488 560L0 560 L0 221.91Q21.82 123.73, 120 145.55Q145.98 99.53, 192 125.51Q248.34 109.85, 264 166.2Q306.87 137.07, 336 179.94Q399.75 171.69, 408 235.43Q426.29 181.72, 480 200.01Q510.55 158.56, 552 189.11Q636.41 153.52, 672 237.93Q701.1 195.03, 744 224.13Q754.48 114.61, 864 125.09Q894.73 83.81, 936 114.54Q1010.72 69.26, 1056 143.98Q1139.72 107.7, 1176 191.42Q1228.57 171.99, 1248 224.55Q1317.51 174.06, 1368 243.57Q1434.62 190.19, 1488 256.8z" fill="rgba(129, 141, 167, 1)"></path><path d="M1488 560L0 560 L0 370.81Q52.92 303.73, 120 356.64Q138.74 255.38, 240 274.11Q270.03 232.14, 312 262.18Q366.37 196.55, 432 250.92Q491.96 238.88, 504 298.84Q556.06 278.9, 576 330.96Q608.96 243.92, 696 276.89Q737.91 246.8, 768 288.71Q870.65 271.37, 888 374.02Q899.46 265.48, 1008 276.94Q1059.99 208.94, 1128 260.93Q1146.01 206.94, 1200 224.94Q1244.43 197.37, 1272 241.8Q1347.64 245.44, 1344 321.09Q1385.4 290.5, 1416 331.9Q1436.16 280.06, 1488 300.23z" fill="rgba(92, 114, 149, 1)"></path><path d="M1512 560L0 560 L0 459.22Q35.32 422.54, 72 457.85Q149.28 415.13, 192 492.41Q193.72 422.13, 264 423.85Q265.17 353.02, 336 354.2Q388.18 286.38, 456 338.56Q542.59 305.14, 576 391.73Q630.47 374.2, 648 428.66Q718.82 379.48, 768 450.3Q814.83 425.13, 840 471.97Q858.44 418.42, 912 436.86Q978.47 383.33, 1032 449.79Q1102.43 400.23, 1152 470.66Q1178.69 377.35, 1272 404.04Q1337.3 349.34, 1392 414.64Q1435.14 337.78, 1512 380.92z" fill="rgba(46, 122, 218, 1)"></path><path d="M1464 560L0 560 L0 567.46Q20.85 468.31, 120 489.16Q144.7 441.86, 192 466.56Q286.1 440.66, 312 534.76Q337.87 488.63, 384 514.5Q395.79 454.29, 456 466.09Q509.69 399.77, 576 453.46Q662.26 419.72, 696 505.98Q763.13 453.11, 816 520.23Q882.5 514.73, 888 581.23Q899.31 520.54, 960 531.85Q993.5 445.35, 1080 478.84Q1125.77 452.61, 1152 498.38Q1251.94 478.32, 1272 578.26Q1303 489.25, 1392 520.25Q1403.72 459.97, 1464 471.68z" fill="rgba(227, 229, 232, 1)"></path></g><defs><mask id="SvgjsMask1081"><rect width="1440" height="560" fill="#ffffff"></rect></mask></defs></svg>