<svg id="visual" viewBox="0 0 900 176" width="900" height="176" xmlns="http://www.w3.org/2000/svg" xmlns:xlink="http://www.w3.org/1999/xlink" version="1.1"><rect x="0" y="0" width="900" height="176" fill="#ccdcf1"></rect><path d="M0 78L12.5 78.3C25 78.7 50 79.3 75 78.5C100 77.7 125 75.3 150 75.7C175 76 200 79 225 80.2C250 81.3 275 80.7 300 82.7C325 84.7 350 89.3 375 90.2C400 91 425 88 450 85.2C475 82.3 500 79.7 525 78.7C550 77.7 575 78.3 600 79.8C625 81.3 650 83.7 675 85C700 86.3 725 86.7 750 89.5C775 92.3 800 97.7 825 96.3C850 95 875 87 887.5 83L900 79L900 0L887.5 0C875 0 850 0 825 0C800 0 775 0 750 0C725 0 700 0 675 0C650 0 625 0 600 0C575 0 550 0 525 0C500 0 475 0 450 0C425 0 400 0 375 0C350 0 325 0 300 0C275 0 250 0 225 0C200 0 175 0 150 0C125 0 100 0 75 0C50 0 25 0 12.5 0L0 0Z" fill="#b8d1f7"></path><path d="M0 61L12.5 63.5C25 66 50 71 75 70.2C100 69.3 125 62.7 150 60.3C175 58 200 60 225 61C250 62 275 62 300 60.3C325 58.7 350 55.3 375 56.8C400 58.3 425 64.7 450 64.8C475 65 500 59 525 57.5C550 56 575 59 600 60.8C625 62.7 650 63.3 675 64.2C700 65 725 66 750 68.2C775 70.3 800 73.7 825 72.7C850 71.7 875 66.3 887.5 63.7L900 61L900 0L887.5 0C875 0 850 0 825 0C800 0 775 0 750 0C725 0 700 0 675 0C650 0 625 0 600 0C575 0 550 0 525 0C500 0 475 0 450 0C425 0 400 0 375 0C350 0 325 0 300 0C275 0 250 0 225 0C200 0 175 0 150 0C125 0 100 0 75 0C50 0 25 0 12.5 0L0 0Z" fill="#92b1db"></path><path d="M0 42L12.5 43.5C25 45 50 48 75 49C100 50 125 49 150 48.8C175 48.7 200 49.3 225 48.2C250 47 275 44 300 43C325 42 350 43 375 41.8C400 40.7 425 37.3 450 38.7C475 40 500 46 525 46.5C550 47 575 42 600 41.3C625 40.7 650 44.3 675 44.5C700 44.7 725 41.3 750 41.7C775 42 800 46 825 46.3C850 46.7 875 43.3 887.5 41.7L900 40L900 0L887.5 0C875 0 850 0 825 0C800 0 775 0 750 0C725 0 700 0 675 0C650 0 625 0 600 0C575 0 550 0 525 0C500 0 475 0 450 0C425 0 400 0 375 0C350 0 325 0 300 0C275 0 250 0 225 0C200 0 175 0 150 0C125 0 100 0 75 0C50 0 25 0 12.5 0L0 0Z" fill="#6b92bf"></path></svg>