<svg id="visual" viewBox="0 0 900 176" width="900" height="176" xmlns="http://www.w3.org/2000/svg" xmlns:xlink="http://www.w3.org/1999/xlink" version="1.1"><rect x="0" y="0" width="900" height="176" fill="#ccdcf1"></rect><path d="M0 98L12.5 93.3C25 88.7 50 79.3 75 81.3C100 83.3 125 96.7 150 99.3C175 102 200 94 225 89.2C250 84.3 275 82.7 300 86.2C325 89.7 350 98.3 375 99.8C400 101.3 425 95.7 450 93C475 90.3 500 90.7 525 92.8C550 95 575 99 600 94.8C625 90.7 650 78.3 675 79.2C700 80 725 94 750 94.2C775 94.3 800 80.7 825 73.7C850 66.7 875 66.3 887.5 66.2L900 66L900 0L887.5 0C875 0 850 0 825 0C800 0 775 0 750 0C725 0 700 0 675 0C650 0 625 0 600 0C575 0 550 0 525 0C500 0 475 0 450 0C425 0 400 0 375 0C350 0 325 0 300 0C275 0 250 0 225 0C200 0 175 0 150 0C125 0 100 0 75 0C50 0 25 0 12.5 0L0 0Z" fill="#b8d1f7"></path><path d="M0 54L12.5 57.7C25 61.3 50 68.7 75 71.3C100 74 125 72 150 68.2C175 64.3 200 58.7 225 62.3C250 66 275 79 300 80.5C325 82 350 72 375 66.3C400 60.7 425 59.3 450 62.8C475 66.3 500 74.7 525 73.7C550 72.7 575 62.3 600 59.7C625 57 650 62 675 68.3C700 74.7 725 82.3 750 85.3C775 88.3 800 86.7 825 83.8C850 81 875 77 887.5 75L900 73L900 0L887.5 0C875 0 850 0 825 0C800 0 775 0 750 0C725 0 700 0 675 0C650 0 625 0 600 0C575 0 550 0 525 0C500 0 475 0 450 0C425 0 400 0 375 0C350 0 325 0 300 0C275 0 250 0 225 0C200 0 175 0 150 0C125 0 100 0 75 0C50 0 25 0 12.5 0L0 0Z" fill="#adc8ef"></path><path d="M0 68L12.5 70.5C25 73 50 78 75 80.8C100 83.7 125 84.3 150 78.8C175 73.3 200 61.7 225 54.8C250 48 275 46 300 49.8C325 53.7 350 63.3 375 66.2C400 69 425 65 450 65.7C475 66.3 500 71.7 525 73.8C550 76 575 75 600 70.3C625 65.7 650 57.3 675 54.5C700 51.7 725 54.3 750 57.5C775 60.7 800 64.3 825 64C850 63.7 875 59.3 887.5 57.2L900 55L900 0L887.5 0C875 0 850 0 825 0C800 0 775 0 750 0C725 0 700 0 675 0C650 0 625 0 600 0C575 0 550 0 525 0C500 0 475 0 450 0C425 0 400 0 375 0C350 0 325 0 300 0C275 0 250 0 225 0C200 0 175 0 150 0C125 0 100 0 75 0C50 0 25 0 12.5 0L0 0Z" fill="#a2bfe7"></path><path d="M0 69L12.5 64.2C25 59.3 50 49.7 75 44.7C100 39.7 125 39.3 150 44.8C175 50.3 200 61.7 225 65.3C250 69 275 65 300 59.7C325 54.3 350 47.7 375 43.8C400 40 425 39 450 38.3C475 37.7 500 37.3 525 41C550 44.7 575 52.3 600 57.8C625 63.3 650 66.7 675 67.2C700 67.7 725 65.3 750 63.3C775 61.3 800 59.7 825 56.2C850 52.7 875 47.3 887.5 44.7L900 42L900 0L887.5 0C875 0 850 0 825 0C800 0 775 0 750 0C725 0 700 0 675 0C650 0 625 0 600 0C575 0 550 0 525 0C500 0 475 0 450 0C425 0 400 0 375 0C350 0 325 0 300 0C275 0 250 0 225 0C200 0 175 0 150 0C125 0 100 0 75 0C50 0 25 0 12.5 0L0 0Z" fill="#97b6df"></path><path d="M0 30L12.5 30.7C25 31.3 50 32.7 75 33.8C100 35 125 36 150 38.2C175 40.3 200 43.7 225 45C250 46.3 275 45.7 300 46.3C325 47 350 49 375 51C400 53 425 55 450 51C475 47 500 37 525 34.3C550 31.7 575 36.3 600 36.5C625 36.7 650 32.3 675 30.7C700 29 725 30 750 32C775 34 800 37 825 39C850 41 875 42 887.5 42.5L900 43L900 0L887.5 0C875 0 850 0 825 0C800 0 775 0 750 0C725 0 700 0 675 0C650 0 625 0 600 0C575 0 550 0 525 0C500 0 475 0 450 0C425 0 400 0 375 0C350 0 325 0 300 0C275 0 250 0 225 0C200 0 175 0 150 0C125 0 100 0 75 0C50 0 25 0 12.5 0L0 0Z" fill="#8cacd7"></path><path d="M0 36L12.5 35.3C25 34.7 50 33.3 75 33.5C100 33.7 125 35.3 150 35.2C175 35 200 33 225 34.5C250 36 275 41 300 41.3C325 41.7 350 37.3 375 36.5C400 35.7 425 38.3 450 38C475 37.7 500 34.3 525 31.5C550 28.7 575 26.3 600 24.7C625 23 650 22 675 24.7C700 27.3 725 33.7 750 33.5C775 33.3 800 26.7 825 26.8C850 27 875 34 887.5 37.5L900 41L900 0L887.5 0C875 0 850 0 825 0C800 0 775 0 750 0C725 0 700 0 675 0C650 0 625 0 600 0C575 0 550 0 525 0C500 0 475 0 450 0C425 0 400 0 375 0C350 0 325 0 300 0C275 0 250 0 225 0C200 0 175 0 150 0C125 0 100 0 75 0C50 0 25 0 12.5 0L0 0Z" fill="#81a4cf"></path><path d="M0 28L12.5 28.8C25 29.7 50 31.3 75 31.2C100 31 125 29 150 26.5C175 24 200 21 225 19.3C250 17.7 275 17.3 300 16.8C325 16.3 350 15.7 375 15.8C400 16 425 17 450 16.8C475 16.7 500 15.3 525 16C550 16.7 575 19.3 600 20.5C625 21.7 650 21.3 675 22.5C700 23.7 725 26.3 750 27.3C775 28.3 800 27.7 825 25.3C850 23 875 19 887.5 17L900 15L900 0L887.5 0C875 0 850 0 825 0C800 0 775 0 750 0C725 0 700 0 675 0C650 0 625 0 600 0C575 0 550 0 525 0C500 0 475 0 450 0C425 0 400 0 375 0C350 0 325 0 300 0C275 0 250 0 225 0C200 0 175 0 150 0C125 0 100 0 75 0C50 0 25 0 12.5 0L0 0Z" fill="#769bc7"></path><path d="M0 11L12.5 9.7C25 8.3 50 5.7 75 7C100 8.3 125 13.7 150 14.7C175 15.7 200 12.3 225 12.8C250 13.3 275 17.7 300 18.2C325 18.7 350 15.3 375 15.2C400 15 425 18 450 17.5C475 17 500 13 525 11.8C550 10.7 575 12.3 600 12.8C625 13.3 650 12.7 675 13.8C700 15 725 18 750 17C775 16 800 11 825 8C850 5 875 4 887.5 3.5L900 3L900 0L887.5 0C875 0 850 0 825 0C800 0 775 0 750 0C725 0 700 0 675 0C650 0 625 0 600 0C575 0 550 0 525 0C500 0 475 0 450 0C425 0 400 0 375 0C350 0 325 0 300 0C275 0 250 0 225 0C200 0 175 0 150 0C125 0 100 0 75 0C50 0 25 0 12.5 0L0 0Z" fill="#6b92bf"></path></svg>