<svg id="visual" viewBox="0 0 900 600" width="900" height="600" xmlns="http://www.w3.org/2000/svg" xmlns:xlink="http://www.w3.org/1999/xlink" version="1.1"><rect x="0" y="0" width="900" height="600" fill="#dbe9f7"></rect><path d="M0 82L225 98L450 91L675 101L900 98L900 601L675 601L450 601L225 601L0 601Z" fill="#d9e8ee"></path><path d="M0 152L225 167L450 138L675 137L900 163L900 601L675 601L450 601L225 601L0 601Z" fill="#cadfe7"></path><path d="M0 217L225 229L450 228L675 202L900 230L900 601L675 601L450 601L225 601L0 601Z" fill="#bbd6e0"></path><path d="M0 294L225 288L450 266L675 292L900 276L900 601L675 601L450 601L225 601L0 601Z" fill="#accdd9"></path><path d="M0 347L225 346L450 352L675 354L900 342L900 601L675 601L450 601L225 601L0 601Z" fill="#9cc5d1"></path><path d="M0 396L225 398L450 409L675 404L900 416L900 601L675 601L450 601L225 601L0 601Z" fill="#8cbcca"></path><path d="M0 465L225 467L450 467L675 469L900 462L900 601L675 601L450 601L225 601L0 601Z" fill="#7cb3c3"></path><path d="M0 522L225 535L450 543L675 530L900 523L900 601L675 601L450 601L225 601L0 601Z" fill="#6baabc"></path></svg>