<svg width="288" height="66" viewBox="0 0 288 66" fill="none" xmlns="http://www.w3.org/2000/svg">
<rect width="288" height="66" rx="25" fill="#D9D9D9" fill-opacity="0.5"/>
<circle cx="42" cy="33" r="19.5" fill="white" stroke="black"/>
<circle cx="90" cy="33" r="19.5" fill="white" stroke="black"/>
<circle cx="138" cy="33" r="19.5" fill="white" stroke="black"/>
<circle cx="186" cy="33" r="19.5" fill="white" stroke="black"/>
<circle cx="234" cy="33" r="19.5" fill="white" stroke="black"/>
<circle cx="266" cy="48" r="4.5" fill="white" stroke="black"/>
<circle cx="278" cy="48" r="4.5" fill="white" stroke="black"/>
<path d="M30.0724 40V37.4716L35.3778 32.8267C35.7756 32.4669 36.1141 32.1378 36.3935 31.8395C36.6728 31.5365 36.8859 31.2334 37.0327 30.9304C37.1795 30.6226 37.2528 30.2888 37.2528 29.929C37.2528 29.5265 37.1652 29.1832 36.9901 28.8991C36.8149 28.6103 36.5734 28.3878 36.2656 28.2315C35.9579 28.0753 35.6051 27.9972 35.2074 27.9972C34.8049 27.9972 34.4522 28.08 34.1491 28.2457C33.8461 28.4067 33.6094 28.6411 33.4389 28.9489C33.2732 29.2566 33.1903 29.6307 33.1903 30.071H29.8594C29.8594 29.0814 30.0819 28.2268 30.527 27.5071C30.9721 26.7874 31.5971 26.2334 32.402 25.8452C33.2116 25.4522 34.1515 25.2557 35.2216 25.2557C36.3248 25.2557 37.2836 25.4403 38.098 25.8097C38.9124 26.179 39.5421 26.6951 39.9872 27.358C40.437 28.0161 40.6619 28.7808 40.6619 29.652C40.6619 30.206 40.5507 30.7552 40.3281 31.2997C40.1056 31.8442 39.7055 32.4455 39.1278 33.1037C38.5549 33.7618 37.7405 34.5502 36.6847 35.4688L34.9446 37.0739V37.1662H40.8395V40H30.0724ZM48.842 40.3551C47.573 40.3551 46.4793 40.0545 45.5607 39.4531C44.6422 38.8471 43.9343 37.9782 43.4371 36.8466C42.94 35.7102 42.6938 34.3442 42.6985 32.7486C42.7032 31.1529 42.9518 29.7988 43.4442 28.6861C43.9414 27.5687 44.6469 26.7187 45.5607 26.1364C46.4793 25.5492 47.573 25.2557 48.842 25.2557C50.1109 25.2557 51.2047 25.5492 52.1232 26.1364C53.0465 26.7187 53.7567 27.5687 54.2539 28.6861C54.7511 29.8035 54.9973 31.1577 54.9925 32.7486C54.9925 34.349 54.744 35.7173 54.2468 36.8537C53.7496 37.9901 53.0418 38.8589 52.1232 39.4602C51.2094 40.0568 50.1156 40.3551 48.842 40.3551ZM48.842 37.4787C49.5996 37.4787 50.2127 37.0928 50.6815 36.321C51.1502 35.5445 51.3822 34.3537 51.3775 32.7486C51.3775 31.6974 51.271 30.831 51.0579 30.1491C50.8448 29.4626 50.5489 28.9512 50.1701 28.6151C49.7913 28.2789 49.3486 28.1108 48.842 28.1108C48.0891 28.1108 47.4807 28.492 47.0167 29.2543C46.5527 30.0118 46.3183 31.1766 46.3136 32.7486C46.3088 33.8139 46.4106 34.697 46.619 35.3977C46.832 36.0985 47.1303 36.6217 47.5138 36.9673C47.8974 37.3082 48.3401 37.4787 48.842 37.4787Z" fill="black"/>
<path d="M78.0724 40V37.4716L83.3778 32.8267C83.7756 32.4669 84.1141 32.1378 84.3935 31.8395C84.6728 31.5365 84.8859 31.2334 85.0327 30.9304C85.1795 30.6226 85.2528 30.2888 85.2528 29.929C85.2528 29.5265 85.1652 29.1832 84.9901 28.8991C84.8149 28.6103 84.5734 28.3878 84.2656 28.2315C83.9579 28.0753 83.6051 27.9972 83.2074 27.9972C82.8049 27.9972 82.4522 28.08 82.1491 28.2457C81.8461 28.4067 81.6094 28.6411 81.4389 28.9489C81.2732 29.2566 81.1903 29.6307 81.1903 30.071H77.8594C77.8594 29.0814 78.0819 28.2268 78.527 27.5071C78.9721 26.7874 79.5971 26.2334 80.402 25.8452C81.2116 25.4522 82.1515 25.2557 83.2216 25.2557C84.3248 25.2557 85.2836 25.4403 86.098 25.8097C86.9124 26.179 87.5421 26.6951 87.9872 27.358C88.437 28.0161 88.6619 28.7808 88.6619 29.652C88.6619 30.206 88.5507 30.7552 88.3281 31.2997C88.1056 31.8442 87.7055 32.4455 87.1278 33.1037C86.5549 33.7618 85.7405 34.5502 84.6847 35.4688L82.9446 37.0739V37.1662H88.8395V40H78.0724ZM97.5522 25.4545V40H94.0437V28.7358H93.9585L90.7056 30.7244V27.6847L94.2923 25.4545H97.5522Z" fill="black"/>
<path d="M126.072 40V37.4716L131.378 32.8267C131.776 32.4669 132.114 32.1378 132.393 31.8395C132.673 31.5365 132.886 31.2334 133.033 30.9304C133.179 30.6226 133.253 30.2888 133.253 29.929C133.253 29.5265 133.165 29.1832 132.99 28.8991C132.815 28.6103 132.573 28.3878 132.266 28.2315C131.958 28.0753 131.605 27.9972 131.207 27.9972C130.805 27.9972 130.452 28.08 130.149 28.2457C129.846 28.4067 129.609 28.6411 129.439 28.9489C129.273 29.2566 129.19 29.6307 129.19 30.071H125.859C125.859 29.0814 126.082 28.2268 126.527 27.5071C126.972 26.7874 127.597 26.2334 128.402 25.8452C129.212 25.4522 130.152 25.2557 131.222 25.2557C132.325 25.2557 133.284 25.4403 134.098 25.8097C134.912 26.179 135.542 26.6951 135.987 27.358C136.437 28.0161 136.662 28.7808 136.662 29.652C136.662 30.206 136.551 30.7552 136.328 31.2997C136.106 31.8442 135.705 32.4455 135.128 33.1037C134.555 33.7618 133.741 34.5502 132.685 35.4688L130.945 37.0739V37.1662H136.839V40H126.072ZM138.826 40V37.4716L144.132 32.8267C144.529 32.4669 144.868 32.1378 145.147 31.8395C145.427 31.5365 145.64 31.2334 145.787 30.9304C145.933 30.6226 146.007 30.2888 146.007 29.929C146.007 29.5265 145.919 29.1832 145.744 28.8991C145.569 28.6103 145.327 28.3878 145.02 28.2315C144.712 28.0753 144.359 27.9972 143.961 27.9972C143.559 27.9972 143.206 28.08 142.903 28.2457C142.6 28.4067 142.363 28.6411 142.193 28.9489C142.027 29.2566 141.944 29.6307 141.944 30.071H138.613C138.613 29.0814 138.836 28.2268 139.281 27.5071C139.726 26.7874 140.351 26.2334 141.156 25.8452C141.966 25.4522 142.905 25.2557 143.975 25.2557C145.079 25.2557 146.038 25.4403 146.852 25.8097C147.666 26.179 148.296 26.6951 148.741 27.358C149.191 28.0161 149.416 28.7808 149.416 29.652C149.416 30.206 149.305 30.7552 149.082 31.2997C148.859 31.8442 148.459 32.4455 147.882 33.1037C147.309 33.7618 146.494 34.5502 145.439 35.4688L143.699 37.0739V37.1662H149.593V40H138.826Z" fill="black"/>
<path d="M174.072 40V37.4716L179.378 32.8267C179.776 32.4669 180.114 32.1378 180.393 31.8395C180.673 31.5365 180.886 31.2334 181.033 30.9304C181.179 30.6226 181.253 30.2888 181.253 29.929C181.253 29.5265 181.165 29.1832 180.99 28.8991C180.815 28.6103 180.573 28.3878 180.266 28.2315C179.958 28.0753 179.605 27.9972 179.207 27.9972C178.805 27.9972 178.452 28.08 178.149 28.2457C177.846 28.4067 177.609 28.6411 177.439 28.9489C177.273 29.2566 177.19 29.6307 177.19 30.071H173.859C173.859 29.0814 174.082 28.2268 174.527 27.5071C174.972 26.7874 175.597 26.2334 176.402 25.8452C177.212 25.4522 178.152 25.2557 179.222 25.2557C180.325 25.2557 181.284 25.4403 182.098 25.8097C182.912 26.179 183.542 26.6951 183.987 27.358C184.437 28.0161 184.662 28.7808 184.662 29.652C184.662 30.206 184.551 30.7552 184.328 31.2997C184.106 31.8442 183.705 32.4455 183.128 33.1037C182.555 33.7618 181.741 34.5502 180.685 35.4688L178.945 37.0739V37.1662H184.839V40H174.072ZM192.359 40.1989C191.251 40.1989 190.269 40.0095 189.412 39.6307C188.559 39.2472 187.887 38.7192 187.395 38.0469C186.902 37.3745 186.651 36.6004 186.642 35.7244H190.179C190.193 36.0417 190.295 36.3234 190.484 36.5696C190.673 36.8111 190.931 37.0005 191.258 37.1378C191.585 37.2751 191.957 37.3438 192.373 37.3438C192.79 37.3438 193.157 37.2704 193.474 37.1236C193.796 36.9721 194.047 36.7661 194.227 36.5057C194.407 36.2405 194.494 35.9375 194.49 35.5966C194.494 35.2557 194.397 34.9527 194.199 34.6875C194 34.4223 193.718 34.2164 193.353 34.0696C192.993 33.9228 192.567 33.8494 192.075 33.8494H190.662V31.3494H192.075C192.506 31.3494 192.885 31.2784 193.211 31.1364C193.543 30.9943 193.801 30.7955 193.985 30.5398C194.17 30.2794 194.26 29.9811 194.255 29.6449C194.26 29.3182 194.182 29.0317 194.021 28.7855C193.865 28.5346 193.645 28.3404 193.36 28.2031C193.081 28.0658 192.757 27.9972 192.387 27.9972C191.999 27.9972 191.646 28.0658 191.329 28.2031C191.017 28.3404 190.768 28.5346 190.583 28.7855C190.399 29.0365 190.302 29.3277 190.292 29.6591H186.933C186.942 28.7926 187.184 28.0303 187.657 27.3722C188.131 26.7093 188.775 26.1908 189.589 25.8168C190.408 25.4427 191.341 25.2557 192.387 25.2557C193.429 25.2557 194.345 25.438 195.136 25.8026C195.927 26.1671 196.542 26.6643 196.983 27.294C197.423 27.919 197.643 28.6269 197.643 29.4176C197.648 30.2367 197.38 30.9115 196.841 31.4418C196.306 31.9721 195.617 32.2988 194.774 32.4219V32.5355C195.901 32.6681 196.751 33.0327 197.324 33.6293C197.901 34.2259 198.188 34.9716 198.183 35.8665C198.183 36.7093 197.934 37.4574 197.437 38.1108C196.945 38.7595 196.258 39.2708 195.377 39.6449C194.502 40.0142 193.495 40.1989 192.359 40.1989Z" fill="black"/>
<path d="M222.072 40V37.4716L227.378 32.8267C227.776 32.4669 228.114 32.1378 228.393 31.8395C228.673 31.5365 228.886 31.2334 229.033 30.9304C229.179 30.6226 229.253 30.2888 229.253 29.929C229.253 29.5265 229.165 29.1832 228.99 28.8991C228.815 28.6103 228.573 28.3878 228.266 28.2315C227.958 28.0753 227.605 27.9972 227.207 27.9972C226.805 27.9972 226.452 28.08 226.149 28.2457C225.846 28.4067 225.609 28.6411 225.439 28.9489C225.273 29.2566 225.19 29.6307 225.19 30.071H221.859C221.859 29.0814 222.082 28.2268 222.527 27.5071C222.972 26.7874 223.597 26.2334 224.402 25.8452C225.212 25.4522 226.152 25.2557 227.222 25.2557C228.325 25.2557 229.284 25.4403 230.098 25.8097C230.912 26.179 231.542 26.6951 231.987 27.358C232.437 28.0161 232.662 28.7808 232.662 29.652C232.662 30.206 232.551 30.7552 232.328 31.2997C232.106 31.8442 231.705 32.4455 231.128 33.1037C230.555 33.7618 229.741 34.5502 228.685 35.4688L226.945 37.0739V37.1662H232.839V40H222.072ZM234.336 37.5852V34.8438L240.295 25.4545H242.731V29.1761H241.318L237.831 34.7017V34.8153H246.46V37.5852H234.336ZM241.36 40V36.7472L241.431 35.5469V25.4545H244.72V40H241.36Z" fill="black"/>
<mask id="path-15-inside-1_102_94" fill="white">
<path d="M19 42.5L28 51.25L43 33.75"/>
</mask>
<path d="M22.4854 38.915C20.5055 36.9901 17.34 37.0347 15.415 39.0146C13.4901 40.9945 13.5347 44.16 15.5146 46.085L22.4854 38.915ZM28 51.25L24.5146 54.835C25.5044 55.7973 26.848 56.3075 28.2271 56.2448C29.6061 56.1822 30.8979 55.5521 31.7963 54.504L28 51.25ZM46.7963 37.004C48.5934 34.9073 48.3506 31.7508 46.254 29.9537C44.1573 28.1566 41.0008 28.3994 39.2037 30.496L46.7963 37.004ZM15.5146 46.085L24.5146 54.835L31.4854 47.665L22.4854 38.915L15.5146 46.085ZM31.7963 54.504L46.7963 37.004L39.2037 30.496L24.2037 47.996L31.7963 54.504Z" fill="#4ECB71" mask="url(#path-15-inside-1_102_94)"/>
<mask id="path-17-inside-2_102_94" fill="white">
<path d="M62 41.75L71 50.5L86 33"/>
</mask>
<path d="M65.4854 38.165C63.5055 36.2401 60.34 36.2847 58.415 38.2646C56.4901 40.2445 56.5347 43.41 58.5146 45.335L65.4854 38.165ZM71 50.5L67.5146 54.085C68.5044 55.0473 69.848 55.5575 71.2271 55.4948C72.6061 55.4322 73.8979 54.8021 74.7963 53.754L71 50.5ZM89.7963 36.254C91.5934 34.1573 91.3506 31.0008 89.254 29.2037C87.1573 27.4066 84.0008 27.6494 82.2037 29.746L89.7963 36.254ZM58.5146 45.335L67.5146 54.085L74.4854 46.915L65.4854 38.165L58.5146 45.335ZM74.7963 53.754L89.7963 36.254L82.2037 29.746L67.2037 47.246L74.7963 53.754Z" fill="#4ECB71" mask="url(#path-17-inside-2_102_94)"/>
<mask id="path-19-inside-3_102_94" fill="white">
<path d="M113 41.75L122 50.5L137 33"/>
</mask>
<path d="M116.485 38.165C114.505 36.2401 111.34 36.2847 109.415 38.2646C107.49 40.2445 107.535 43.41 109.515 45.335L116.485 38.165ZM122 50.5L118.515 54.085C119.504 55.0473 120.848 55.5575 122.227 55.4948C123.606 55.4322 124.898 54.8021 125.796 53.754L122 50.5ZM140.796 36.254C142.593 34.1573 142.351 31.0008 140.254 29.2037C138.157 27.4066 135.001 27.6494 133.204 29.746L140.796 36.254ZM109.515 45.335L118.515 54.085L125.485 46.915L116.485 38.165L109.515 45.335ZM125.796 53.754L140.796 36.254L133.204 29.746L118.204 47.246L125.796 53.754Z" fill="#4ECB71" mask="url(#path-19-inside-3_102_94)"/>
<mask id="path-21-inside-4_102_94" fill="white">
<path d="M158 42.75L167 51.5L182 34"/>
</mask>
<path d="M161.485 39.165C159.505 37.2401 156.34 37.2847 154.415 39.2646C152.49 41.2445 152.535 44.41 154.515 46.335L161.485 39.165ZM167 51.5L163.515 55.085C164.504 56.0473 165.848 56.5575 167.227 56.4948C168.606 56.4322 169.898 55.8021 170.796 54.754L167 51.5ZM185.796 37.254C187.593 35.1573 187.351 32.0008 185.254 30.2037C183.157 28.4066 180.001 28.6494 178.204 30.746L185.796 37.254ZM154.515 46.335L163.515 55.085L170.485 47.915L161.485 39.165L154.515 46.335ZM170.796 54.754L185.796 37.254L178.204 30.746L163.204 48.246L170.796 54.754Z" fill="#4ECB71" mask="url(#path-21-inside-4_102_94)"/>
</svg>
