<svg id="visual" viewBox="0 0 900 176" width="900" height="176" xmlns="http://www.w3.org/2000/svg" xmlns:xlink="http://www.w3.org/1999/xlink" version="1.1"><path d="M0 45L25 46.8C50 48.7 100 52.3 150 51.5C200 50.7 250 45.3 300 42C350 38.7 400 37.3 450 37C500 36.7 550 37.3 600 41.8C650 46.3 700 54.7 750 55.8C800 57 850 51 875 48L900 45L900 0L875 0C850 0 800 0 750 0C700 0 650 0 600 0C550 0 500 0 450 0C400 0 350 0 300 0C250 0 200 0 150 0C100 0 50 0 25 0L0 0Z" fill="#c7d6ea"></path><path d="M0 59L25 60.5C50 62 100 65 150 64.7C200 64.3 250 60.7 300 58C350 55.3 400 53.7 450 52.5C500 51.3 550 50.7 600 55C650 59.3 700 68.7 750 69.7C800 70.7 850 63.3 875 59.7L900 56L900 43L875 46C850 49 800 55 750 53.8C700 52.7 650 44.3 600 39.8C550 35.3 500 34.7 450 35C400 35.3 350 36.7 300 40C250 43.3 200 48.7 150 49.5C100 50.3 50 46.7 25 44.8L0 43Z" fill="#c0d0e7"></path><path d="M0 73L25 74.8C50 76.7 100 80.3 150 79.2C200 78 250 72 300 68.2C350 64.3 400 62.7 450 62.3C500 62 550 63 600 67.3C650 71.7 700 79.3 750 80.5C800 81.7 850 76.3 875 73.7L900 71L900 54L875 57.7C850 61.3 800 68.7 750 67.7C700 66.7 650 57.3 600 53C550 48.7 500 49.3 450 50.5C400 51.7 350 53.3 300 56C250 58.7 200 62.3 150 62.7C100 63 50 60 25 58.5L0 57Z" fill="#b9cbe4"></path><path d="M0 84L25 86.3C50 88.7 100 93.3 150 92.3C200 91.3 250 84.7 300 80.2C350 75.7 400 73.3 450 73.2C500 73 550 75 600 79.8C650 84.7 700 92.3 750 94.3C800 96.3 850 92.7 875 90.8L900 89L900 69L875 71.7C850 74.3 800 79.7 750 78.5C700 77.3 650 69.7 600 65.3C550 61 500 60 450 60.3C400 60.7 350 62.3 300 66.2C250 70 200 76 150 77.2C100 78.3 50 74.7 25 72.8L0 71Z" fill="#b2c5e1"></path><path d="M0 108L25 109C50 110 100 112 150 110C200 108 250 102 300 98.7C350 95.3 400 94.7 450 93.2C500 91.7 550 89.3 600 93.2C650 97 700 107 750 109.3C800 111.7 850 106.3 875 103.7L900 101L900 87L875 88.8C850 90.7 800 94.3 750 92.3C700 90.3 650 82.7 600 77.8C550 73 500 71 450 71.2C400 71.3 350 73.7 300 78.2C250 82.7 200 89.3 150 90.3C100 91.3 50 86.7 25 84.3L0 82Z" fill="#a9bddc"></path><path d="M0 126L25 125.3C50 124.7 100 123.3 150 120.7C200 118 250 114 300 112.7C350 111.3 400 112.7 450 111.2C500 109.7 550 105.3 600 107.8C650 110.3 700 119.7 750 122C800 124.3 850 119.7 875 117.3L900 115L900 99L875 101.7C850 104.3 800 109.7 750 107.3C700 105 650 95 600 91.2C550 87.3 500 89.7 450 91.2C400 92.7 350 93.3 300 96.7C250 100 200 106 150 108C100 110 50 108 25 107L0 106Z" fill="#9eb2d4"></path><path d="M0 151L25 150C50 149 100 147 150 146C200 145 250 145 300 147.7C350 150.3 400 155.7 450 157.2C500 158.7 550 156.3 600 155.8C650 155.3 700 156.7 750 157.5C800 158.3 850 158.7 875 158.8L900 159L900 113L875 115.3C850 117.7 800 122.3 750 120C700 117.7 650 108.3 600 105.8C550 103.3 500 107.7 450 109.2C400 110.7 350 109.3 300 110.7C250 112 200 116 150 118.7C100 121.3 50 122.7 25 123.3L0 124Z" fill="#92a8cd"></path><path d="M0 177L25 177C50 177 100 177 150 177C200 177 250 177 300 177C350 177 400 177 450 177C500 177 550 177 600 177C650 177 700 177 750 177C800 177 850 177 875 177L900 177L900 157L875 156.8C850 156.7 800 156.3 750 155.5C700 154.7 650 153.3 600 153.8C550 154.3 500 156.7 450 155.2C400 153.7 350 148.3 300 145.7C250 143 200 143 150 144C100 145 50 147 25 148L0 149Z" fill="#879ec5"></path></svg>