<svg width="44" height="44" viewBox="0 0 44 44" fill="none" xmlns="http://www.w3.org/2000/svg">
<path d="M23.0007 0.166626C11.4965 0.166626 2.16732 9.49579 2.16732 21C2.16732 21.9291 2.22982 22.8437 2.34648 23.7416C2.66308 22.5102 3.38019 21.419 4.38493 20.6398C5.38967 19.8606 6.625 19.4376 7.89648 19.4375H15.1882C16.7076 19.4375 18.1649 20.0411 19.2393 21.1155C20.3137 22.1899 20.9173 23.6472 20.9173 25.1666V25.2708C22.0937 25.5109 23.1511 26.1501 23.9103 27.0803C24.6696 28.0104 25.0842 29.1743 25.084 30.375V40.7916C25.084 41.1145 25.0548 41.4312 24.9986 41.7395C35.5631 40.7333 43.834 31.8312 43.834 21C43.834 9.49579 34.5048 0.166626 23.0007 0.166626ZM30.8131 24.125H22.4798C22.0654 24.125 21.668 23.9603 21.375 23.6673C21.0819 23.3743 20.9173 22.9769 20.9173 22.5625V10.0625C20.9173 9.64806 21.0819 9.25063 21.375 8.9576C21.668 8.66458 22.0654 8.49996 22.4798 8.49996C22.8942 8.49996 23.2916 8.66458 23.5847 8.9576C23.8777 9.25063 24.0423 9.64806 24.0423 10.0625V21H30.8131C31.2276 21 31.625 21.1646 31.918 21.4576C32.211 21.7506 32.3756 22.1481 32.3756 22.5625C32.3756 22.9769 32.211 23.3743 31.918 23.6673C31.625 23.9603 31.2276 24.125 30.8131 24.125V24.125ZM4.25065 27.25H3.20898C2.38018 27.25 1.58533 27.5792 0.999276 28.1652C0.413225 28.7513 0.0839844 29.5462 0.0839844 30.375V33.5H5.29232V32.9791C5.29232 32.5647 5.45694 32.1673 5.74996 31.8743C6.04299 31.5812 6.44042 31.4166 6.85482 31.4166C7.26922 31.4166 7.66665 31.5812 7.95967 31.8743C8.2527 32.1673 8.41732 32.5647 8.41732 32.9791V33.5H14.6673V32.9791C14.6673 32.5647 14.8319 32.1673 15.125 31.8743C15.418 31.5812 15.8154 31.4166 16.2298 31.4166C16.6442 31.4166 17.0416 31.5812 17.3347 31.8743C17.6277 32.1673 17.7923 32.5647 17.7923 32.9791V33.5H23.0007V30.375C23.0007 29.5462 22.6714 28.7513 22.0854 28.1652C21.4993 27.5792 20.7045 27.25 19.8757 27.25H18.834V25.1666C18.834 24.1997 18.4499 23.2724 17.7661 22.5886C17.0824 21.9049 16.1551 21.5208 15.1882 21.5208H7.89648C6.92955 21.5208 6.00222 21.9049 5.31849 22.5886C4.63476 23.2724 4.25065 24.1997 4.25065 25.1666V27.25ZM7.37565 25.1666C7.37565 25.0285 7.43052 24.896 7.5282 24.7983C7.62587 24.7007 7.75835 24.6458 7.89648 24.6458H15.1882C15.3263 24.6458 15.4588 24.7007 15.5564 24.7983C15.6541 24.896 15.709 25.0285 15.709 25.1666V27.25H7.37565V25.1666ZM0.0839844 40.7916V36.625H5.29232V38.1875C5.29232 38.6019 5.45694 38.9993 5.74996 39.2923C6.04299 39.5853 6.44042 39.75 6.85482 39.75C7.26922 39.75 7.66665 39.5853 7.95967 39.2923C8.2527 38.9993 8.41732 38.6019 8.41732 38.1875V36.625H14.6673V38.1875C14.6673 38.6019 14.8319 38.9993 15.125 39.2923C15.418 39.5853 15.8154 39.75 16.2298 39.75C16.6442 39.75 17.0416 39.5853 17.3347 39.2923C17.6277 38.9993 17.7923 38.6019 17.7923 38.1875V36.625H23.0007V40.7916C23.0007 41.6204 22.6714 42.4153 22.0854 43.0013C21.4993 43.5874 20.7045 43.9166 19.8757 43.9166H3.20898C2.38018 43.9166 1.58533 43.5874 0.999276 43.0013C0.413225 42.4153 0.0839844 41.6204 0.0839844 40.7916Z" fill="#3793FF"/>
</svg>
