<svg width="50" height="50" viewBox="0 0 50 50" fill="none" xmlns="http://www.w3.org/2000/svg">
<path d="M25.0007 4.16663C13.4965 4.16663 4.16732 13.4958 4.16732 25C4.16732 25.9291 4.22982 26.8437 4.34648 27.7416C4.66308 26.5102 5.38019 25.419 6.38493 24.6398C7.38967 23.8606 8.625 23.4376 9.89648 23.4375H17.1882C18.7076 23.4375 20.1649 24.0411 21.2393 25.1155C22.3137 26.1899 22.9173 27.6472 22.9173 29.1666V29.2708C24.0937 29.5109 25.1511 30.1501 25.9103 31.0803C26.6696 32.0104 27.0842 33.1743 27.084 34.375V44.7916C27.084 45.1145 27.0548 45.4312 26.9986 45.7395C37.5631 44.7333 45.834 35.8312 45.834 25C45.834 13.4958 36.5048 4.16663 25.0007 4.16663ZM32.8131 28.125H24.4798C24.0654 28.125 23.668 27.9603 23.375 27.6673C23.0819 27.3743 22.9173 26.9769 22.9173 26.5625V14.0625C22.9173 13.6481 23.0819 13.2506 23.375 12.9576C23.668 12.6646 24.0654 12.5 24.4798 12.5C24.8942 12.5 25.2916 12.6646 25.5847 12.9576C25.8777 13.2506 26.0423 13.6481 26.0423 14.0625V25H32.8131C33.2276 25 33.625 25.1646 33.918 25.4576C34.211 25.7506 34.3756 26.1481 34.3756 26.5625C34.3756 26.9769 34.211 27.3743 33.918 27.6673C33.625 27.9603 33.2276 28.125 32.8131 28.125V28.125ZM6.25065 31.25H5.20898C4.38018 31.25 3.58533 31.5792 2.99928 32.1652C2.41322 32.7513 2.08398 33.5462 2.08398 34.375V37.5H7.29232V36.9791C7.29232 36.5647 7.45694 36.1673 7.74996 35.8743C8.04299 35.5812 8.44042 35.4166 8.85482 35.4166C9.26922 35.4166 9.66665 35.5812 9.95967 35.8743C10.2527 36.1673 10.4173 36.5647 10.4173 36.9791V37.5H16.6673V36.9791C16.6673 36.5647 16.8319 36.1673 17.125 35.8743C17.418 35.5812 17.8154 35.4166 18.2298 35.4166C18.6442 35.4166 19.0416 35.5812 19.3347 35.8743C19.6277 36.1673 19.7923 36.5647 19.7923 36.9791V37.5H25.0007V34.375C25.0007 33.5462 24.6714 32.7513 24.0854 32.1652C23.4993 31.5792 22.7045 31.25 21.8757 31.25H20.834V29.1666C20.834 28.1997 20.4499 27.2724 19.7661 26.5886C19.0824 25.9049 18.1551 25.5208 17.1882 25.5208H9.89648C8.92955 25.5208 8.00222 25.9049 7.31849 26.5886C6.63476 27.2724 6.25065 28.1997 6.25065 29.1666V31.25ZM9.37565 29.1666C9.37565 29.0285 9.43052 28.896 9.5282 28.7983C9.62587 28.7007 9.75835 28.6458 9.89648 28.6458H17.1882C17.3263 28.6458 17.4588 28.7007 17.5564 28.7983C17.6541 28.896 17.709 29.0285 17.709 29.1666V31.25H9.37565V29.1666ZM2.08398 44.7916V40.625H7.29232V42.1875C7.29232 42.6019 7.45694 42.9993 7.74996 43.2923C8.04299 43.5853 8.44042 43.75 8.85482 43.75C9.26922 43.75 9.66665 43.5853 9.95967 43.2923C10.2527 42.9993 10.4173 42.6019 10.4173 42.1875V40.625H16.6673V42.1875C16.6673 42.6019 16.8319 42.9993 17.125 43.2923C17.418 43.5853 17.8154 43.75 18.2298 43.75C18.6442 43.75 19.0416 43.5853 19.3347 43.2923C19.6277 42.9993 19.7923 42.6019 19.7923 42.1875V40.625H25.0007V44.7916C25.0007 45.6204 24.6714 46.4153 24.0854 47.0013C23.4993 47.5874 22.7045 47.9166 21.8757 47.9166H5.20898C4.38018 47.9166 3.58533 47.5874 2.99928 47.0013C2.41322 46.4153 2.08398 45.6204 2.08398 44.7916Z" fill="#4ECB71"/>
</svg>
